<svg width="40" height="40" viewBox="0 0 40 40" fill="none" xmlns="http://www.w3.org/2000/svg">
  <defs>
    <linearGradient id="gradient" x1="0%" y1="0%" x2="100%" y2="100%">
      <stop offset="0%" style="stop-color:#1890ff;stop-opacity:1" />
      <stop offset="100%" style="stop-color:#40a9ff;stop-opacity:1" />
    </linearGradient>
  </defs>
  
  <!-- Background circle -->
  <circle cx="20" cy="20" r="18" fill="url(#gradient)" stroke="#fff" stroke-width="2"/>
  
  <!-- Chat bubble -->
  <path d="M12 14 C12 12, 13 11, 15 11 L25 11 C27 11, 28 12, 28 14 L28 20 C28 22, 27 23, 25 23 L18 23 L15 26 L15 23 C13 23, 12 22, 12 20 Z" fill="#fff"/>
  
  <!-- Heart in chat bubble -->
  <path d="M18 17.5 C18 16.5, 18.5 16, 19.5 16 C20 16, 20.5 16.2, 20.5 16.8 C20.5 16.2, 21 16, 21.5 16 C22.5 16, 23 16.5, 23 17.5 C23 18.5, 20.5 20.5, 20.5 20.5 C20.5 20.5, 18 18.5, 18 17.5 Z" fill="#ff4d4f"/>
</svg>
